HIERARCHY
ROOT Hips
{
	OFFSET 0.000000 0.000000 0.000000
	CHANNELS 6 Xposition Yposition Zposition Xrotation Yrotation Zrotation
	JOINT LeftUpLeg_virtual
	{
		OFFSET 0.000000 0.000000 0.000000
		CHANNELS 3 Xrotation Yrotation Zrotation
		JOINT LeftUpLeg
		{
			OFFSET 11.394100 -6.187798 -0.413800
			CHANNELS 3 Xrotation Yrotation Zrotation
			JOINT LeftLeg
			{
				OFFSET 0.430247 -32.302673 3.732800
				CHANNELS 3 Xrotation Yrotation Zrotation
				JOINT LeftFoot
				{
					OFFSET -0.430247 -48.264931 -6.423300
					CHANNELS 3 Xrotation Yrotation Zrotation
					JOINT LeftToeBase
					{
						OFFSET 4.230900 -16.068199 23.438400
						CHANNELS 3 Xrotation Yrotation Zrotation
						JOINT LeftToe_End
						{
							OFFSET 4.510700 0.695400 19.974600
							CHANNELS 3 Xrotation Yrotation Zrotation
							End Site
							{
								OFFSET 0 0 0
							}
						}
					}
				}
			}
		}
	}
	JOINT RightUpLeg_virtual
	{
		OFFSET 0.000000 0.000000 0.000000
		CHANNELS 3 Xrotation Yrotation Zrotation
		JOINT RightUpLeg
		{
			OFFSET -11.333700 -6.187798 -0.413800
			CHANNELS 3 Xrotation Yrotation Zrotation
			JOINT RightLeg
			{
				OFFSET -0.430392 -32.302628 3.733000
				CHANNELS 3 Xrotation Yrotation Zrotation
				JOINT RightFoot
				{
					OFFSET 0.430392 -48.264973 -6.423500
					CHANNELS 3 Xrotation Yrotation Zrotation
					JOINT RightToeBase
					{
						OFFSET -4.230900 -16.068199 23.438400
						CHANNELS 3 Xrotation Yrotation Zrotation
						JOINT RightToe_End
						{
							OFFSET -4.510700 0.695400 19.974600
							CHANNELS 3 Xrotation Yrotation Zrotation
							End Site
							{
								OFFSET 0 0 0
							}
						}
					}
				}
			}
		}
	}
	JOINT Spine_virtual
	{
		OFFSET 0.000000 0.000000 0.000000
		CHANNELS 3 Xrotation Yrotation Zrotation
		JOINT Spine
		{
			OFFSET -0.002400 12.777504 0.315300
			CHANNELS 3 Xrotation Yrotation Zrotation
			JOINT Spine1
			{
				OFFSET -0.002067 5.816869 0.032633
				CHANNELS 3 Xrotation Yrotation Zrotation
				JOINT Spine1_split
				{
					OFFSET -0.002067 5.816869 0.032633
					CHANNELS 3 Xrotation Yrotation Zrotation
					JOINT Spine2
					{
						OFFSET -0.002067 5.816869 0.032633
						CHANNELS 3 Xrotation Yrotation Zrotation
						JOINT Neck_virtual
						{
							OFFSET 0.000000 0.000000 0.000000
							CHANNELS 3 Xrotation Yrotation Zrotation
							JOINT Neck
							{
								OFFSET -0.003700 21.199493 -0.826900
								CHANNELS 3 Xrotation Yrotation Zrotation
								JOINT Head
								{
									OFFSET 0.000000 20.442200 4.834800
									CHANNELS 3 Xrotation Yrotation Zrotation
									JOINT HeadTop_End
									{
										OFFSET 0.000000 34.668396 4.968400
										CHANNELS 3 Xrotation Yrotation Zrotation
										End Site
										{
											OFFSET 0 0 0
										}
									}
								}
							}
						}
						JOINT LeftShoulder_virtual
						{
							OFFSET 0.000000 0.000000 0.000000
							CHANNELS 3 Xrotation Yrotation Zrotation
							JOINT LeftShoulder
							{
								OFFSET 3.288150 8.794197 -1.372250
								CHANNELS 3 Xrotation Yrotation Zrotation
								JOINT LeftShoulder_split
								{
									OFFSET 3.288150 8.794197 -1.372250
									CHANNELS 3 Xrotation Yrotation Zrotation
									JOINT LeftArm
									{
										OFFSET 11.953299 -2.279007 -0.146200
										CHANNELS 3 Xrotation Yrotation Zrotation
										JOINT LeftForeArm
										{
											OFFSET 18.448900 0.000000 0.000000
											CHANNELS 3 Xrotation Yrotation Zrotation
											JOINT LeftHand
											{
												OFFSET 29.527798 0.000000 0.000000
												CHANNELS 3 Xrotation Yrotation Zrotation
												End Site
												{
													OFFSET 0 0 0
												}
											}
										}
									}
								}
							}
						}
						JOINT RightShoulder_virtual
						{
							OFFSET 0.000000 0.000000 0.000000
							CHANNELS 3 Xrotation Yrotation Zrotation
							JOINT RightShoulder
							{
								OFFSET -3.249400 8.794197 -1.372250
								CHANNELS 3 Xrotation Yrotation Zrotation
								JOINT RightShoulder_split
								{
									OFFSET -3.249400 8.794197 -1.372250
									CHANNELS 3 Xrotation Yrotation Zrotation
									JOINT RightArm
									{
										OFFSET -11.953299 -2.279007 -0.146200
										CHANNELS 3 Xrotation Yrotation Zrotation
										JOINT RightForeArm
										{
											OFFSET -18.448900 0.000000 0.000000
											CHANNELS 3 Xrotation Yrotation Zrotation
											JOINT RightHand
											{
												OFFSET -29.527802 0.000000 0.000000
												CHANNELS 3 Xrotation Yrotation Zrotation
												End Site
												{
													OFFSET 0 0 0
												}
											}
										}
									}
								}
							}
						}
					}
				}
			}
		}
	}
}
MOTION
Frames: 6
Frame Time: 0.03333333
-67.649979 27.869869 0.855061 0.000000 0.000000 0.000000 -45.753962 9.304986 103.940808 -43.454497 11.124965 0.747277 68.590918 2.847531 -14.486237 -11.235338 -13.409227 0.525019 -6.907162 -2.957516 8.589414 0.000000 0.000000 0.000000 -55.707569 5.328160 107.343970 -66.301596 -5.300210 -40.632823 116.445778 5.328196 1.128181 10.279991 7.920768 21.875610 9.576853 -0.664772 2.357431 0.000000 0.000000 0.000000 -47.751444 5.516812 98.801821 12.796505 -0.888348 -7.767669 16.895723 0.165041 -2.528628 0.226391 2.091040 -1.252948 0.000000 0.000000 0.000000 12.344886 0.919919 -2.139011 42.382666 8.392381 -11.999889 -7.386097 13.366301 -2.586444 0.000000 0.000000 0.000000 14.788731 1.909521 -2.573754 -0.047655 -3.659374 -13.207303 1.387227 -12.281582 -0.737387 -56.916895 -8.145847 -22.302268 46.809431 -13.199612 11.350334 0.000000 0.000000 0.000000 16.083668 1.802498 -3.133491 4.905204 18.625963 -11.155517 -10.224547 -6.768700 3.231650 -22.903981 -4.580163 16.354260 23.165604 48.672966 -15.143482 0.000000 0.000000 0.000000 
-71.681061 23.013962 1.874935 0.000000 0.000000 0.000000 -48.859400 -1.564882 110.809355 -36.548947 4.771131 -5.899039 65.647284 7.206656 -11.408672 -10.705729 -7.479820 0.591724 -8.726600 -2.586014 6.739894 0.000000 0.000000 0.000000 -57.166289 -5.185600 112.815116 -65.331845 -1.405259 -43.193867 117.348592 1.742419 3.224747 7.365140 4.919311 21.233221 6.782129 -1.239513 4.748062 0.000000 0.000000 0.000000 -51.470649 -3.025821 104.286429 13.657093 -1.561959 -8.035495 16.858997 -0.296954 -1.455022 0.590334 2.814288 -0.678741 0.000000 0.000000 0.000000 12.004137 0.242404 -0.980418 39.248227 5.288978 -9.327200 -7.607247 5.846206 -2.536408 0.000000 0.000000 0.000000 14.436317 1.320375 -1.282186 -0.311859 -4.047879 -17.392710 -0.195582 -11.524957 -0.839901 -60.893739 -1.864991 -25.772599 48.154599 -15.686474 13.131238 0.000000 0.000000 0.000000 16.196795 1.151286 -2.036907 4.889907 19.140077 -10.915599 -9.717818 -6.637833 3.209140 -19.162547 -3.731833 15.123079 27.035661 46.168606 -19.647244 0.000000 0.000000 0.000000 
-76.019562 20.389702 2.245041 0.000000 0.000000 0.000000 -51.576234 -10.963578 114.352318 -31.811493 -1.210916 -8.880731 61.425039 11.362868 -8.442680 -3.981115 -0.964210 -1.474097 -8.691756 -1.874739 5.039232 0.000000 0.000000 0.000000 -57.752569 -13.730897 115.144558 -60.811531 -0.621665 -46.218889 113.346559 -1.762312 5.082168 4.585772 3.267203 21.839351 4.551246 -1.047115 4.447331 0.000000 0.000000 0.000000 -54.792300 -10.116886 107.170989 14.765201 -1.830314 -7.353414 15.757129 -0.348088 -0.032592 -0.622430 2.765978 0.797314 0.000000 0.000000 0.000000 10.722775 0.021232 0.378264 34.379358 1.973563 -6.393034 -10.686086 -2.684531 -2.401771 0.000000 0.000000 0.000000 12.917377 1.181320 0.330630 -0.578177 -4.051495 -20.494828 -1.542901 -10.481621 -2.248201 -63.990738 10.056568 -26.097314 51.204740 -20.826941 18.188485 0.000000 0.000000 0.000000 14.950739 0.862458 -0.670203 5.060096 19.548941 -10.957378 -10.189950 -6.804981 3.472256 -16.846062 1.363872 12.982120 25.127597 44.229696 -19.650678 0.000000 0.000000 0.000000 
-80.377129 19.826469 1.766499 0.000000 0.000000 0.000000 -54.946034 -18.048153 114.784867 -28.936059 -5.049036 -7.967160 56.855376 14.759110 -6.066677 8.984898 3.960826 -6.040501 -6.914878 -1.061298 3.620422 0.000000 0.000000 0.000000 -59.392286 -19.600213 114.758680 -53.862844 -2.872994 -48.051829 103.900701 -5.364515 6.491056 2.453299 2.579791 23.232690 4.165681 -0.174471 1.895268 0.000000 0.000000 0.000000 -58.265789 -15.667218 107.505094 16.252321 -1.736742 -5.531057 13.960709 -0.328094 1.533625 -1.434076 2.100405 1.839925 0.000000 0.000000 0.000000 8.991972 -0.040378 1.731140 28.431347 -1.024568 -3.722221 -15.656843 -10.568069 -2.906138 0.000000 0.000000 0.000000 10.789523 1.088306 2.047590 -0.786221 -4.240760 -21.927897 -2.365521 -9.410711 -4.168734 -67.381476 23.704175 -22.844369 56.829264 -26.606925 26.705217 0.000000 0.000000 0.000000 12.866802 0.640751 0.780436 5.350421 19.402505 -11.223982 -10.849456 -8.124011 4.339554 -16.591694 8.232202 10.878966 17.774271 41.433823 -15.253131 0.000000 0.000000 0.000000 
-84.566887 20.909706 0.378613 0.000000 0.000000 0.000000 -59.114611 -22.527195 112.308555 -27.451111 -5.731729 -4.029021 53.173736 17.355507 -4.685135 23.752656 5.702840 -10.752312 -4.784678 -0.407102 2.813860 0.000000 0.000000 0.000000 -62.884527 -22.698633 112.443294 -46.171263 -7.182576 -47.682797 90.339804 -8.772902 7.034566 2.273691 2.690288 24.405565 5.837934 0.932561 -1.474893 0.000000 0.000000 0.000000 -61.842124 -19.664053 105.792131 18.059088 -1.268215 -2.693517 12.066442 -0.506859 2.978758 -2.163125 1.912506 2.138116 0.000000 0.000000 0.000000 7.361721 -0.188227 2.954695 22.649838 -3.193046 -1.306843 -21.317939 -16.113560 -4.049112 0.000000 0.000000 0.000000 8.671028 0.800019 3.622435 -0.897493 -4.604516 -21.660280 -2.862301 -9.000463 -5.566065 -71.300338 34.380187 -17.428969 64.796932 -30.057361 37.541954 0.000000 0.000000 0.000000 10.556403 0.248306 2.043783 5.662756 18.287956 -11.800028 -11.613498 -10.485782 5.715002 -17.290443 13.985948 9.743621 7.371663 36.429125 -8.393229 0.000000 0.000000 0.000000 
-88.592010 22.836071 -0.958260 0.000000 0.000000 0.000000 -63.940502 -23.955256 108.157596 -26.735223 -3.848564 1.080312 49.791679 19.380250 -3.947118 33.995197 5.051181 -12.940742 -3.449011 -0.127194 2.882732 0.000000 0.000000 0.000000 -68.379380 -23.363270 109.429357 -39.233655 -11.900018 -45.244020 75.529509 -11.898665 6.946481 4.693453 2.768834 24.473574 7.993364 1.639591 -3.998764 0.000000 0.000000 0.000000 -65.266877 -22.262935 102.568937 19.962228 -0.612120 0.659009 10.466812 -0.917298 4.034063 -2.026684 1.870856 1.893238 0.000000 0.000000 0.000000 6.096746 -0.520632 3.820643 17.652363 -4.613253 1.026295 -26.263817 -18.894462 -5.048865 0.000000 0.000000 0.000000 7.081009 0.272458 4.807925 -0.916524 -5.451098 -19.929292 -2.650944 -8.399941 -6.345874 -73.767532 39.870929 -12.606727 71.798320 -29.214078 46.916067 0.000000 0.000000 0.000000 8.572278 -0.349824 2.965346 5.824180 16.286176 -12.351808 -11.931021 -13.194516 6.888077 -18.056628 17.391764 9.917318 -2.807404 29.434417 -1.887156 0.000000 0.000000 0.000000 
